# xmcd
#
# Track frame offsets:
#	150
#	21409
#	39809
#	59229
#	80514
#	98943
#	120280
#	140796
#	158971
#	177487
#	212509
#	231807
#	249513
#	266533
#	288205
#
# Disc length: 4173 seconds
#
# Revision: 1
# Processed by: cddbd v1.5.1PL0 Copyright (c) Steve Scherf et al.
# Submitted via: audiograbber 1.83.01
#
DISCID=d4104b0f
DTITLE=Joe Cocker - The Ultimate Collection (1968-2003) Disc 2
DYEAR=2003
DGENRE=Soul
TTITLE0=N'oubliez Jamais
TTITLE1=That's All I Need To Know
TTITLE2=Have A Little Faith In Me
TTITLE3=Now That The Magic Has Gone
TTITLE4=Sweet Li'l Woman
TTITLE5=(All I Know) Feels Like Forever
TTITLE6=My Father's Son
TTITLE7=Sorry Seems To Be The Hardest Word
TTITLE8=Never Tear Us Apart
TTITLE9=Ruby Lee
TTITLE10=Could You Be Loved
TTITLE11=Civilized Man
TTITLE12=First We Take Manhattan
TTITLE13=The Simple Things
TTITLE14=Don't Let The Sun Go Down On Me
EXTD=
EXTT0=
EXTT1=
EXTT2=
EXTT3=
EXTT4=
EXTT5=
EXTT6=
EXTT7=
EXTT8=
EXTT9=
EXTT10=
EXTT11=
EXTT12=
EXTT13=
EXTT14=
PLAYORDER=
